<svg width="31" height="21" viewBox="0 0 31 21" fill="none" xmlns="http://www.w3.org/2000/svg">
<path d="M30.5489 3.58711C30.4055 3.4738 30.2348 3.38395 30.0467 3.32277C29.8586 3.2616 29.6568 3.23032 29.4532 3.23077H28.3593V1.21154C28.3588 0.890329 28.1957 0.582379 27.9057 0.35525C27.6157 0.12812 27.2225 0.000360752 26.8124 0H4.55211C3.34482 1.3388e-05 2.18699 0.375647 1.3333 1.04427C0.479619 1.71289 1.70935e-05 2.61973 0 3.56531V17.4347C1.70935e-05 18.3803 0.479619 19.2871 1.3333 19.9557C2.18699 20.6244 3.34482 21 4.55211 21H29.3923C29.8014 20.9994 30.1937 20.8721 30.4834 20.6458C30.7732 20.4196 30.937 20.1128 30.9391 19.7923L31 4.44645C31.0013 4.28694 30.962 4.12883 30.8846 3.9813C30.8071 3.83378 30.693 3.69978 30.5489 3.58711ZM28.8783 19.3846H4.55211C3.89183 19.3846 3.25858 19.1792 2.79169 18.8135C2.32479 18.4478 2.06249 17.9518 2.06249 17.4347V3.56531C2.06249 3.04815 2.32479 2.55218 2.79169 2.1865C3.25858 1.82082 3.89183 1.61538 4.55211 1.61538H26.2968V3.23077H4.64061V4.84615H28.9359L28.8783 19.3846Z" fill="white"/>
<path d="M26.2967 10.9038H24.2343V12.5192H26.2967V10.9038Z" fill="white"/>
</svg>
