<svg width="20" height="32" viewBox="0 0 20 32" fill="none" xmlns="http://www.w3.org/2000/svg">
<path d="M10 0C4.47937 0 0 4.60786 0 10.2857C0 19.4286 10 32 10 32C10 32 20 19.4286 20 10.2857C20 4.60786 15.5206 0 10 0ZM10 16C9.20887 16 8.43552 15.7319 7.77772 15.2296C7.11992 14.7273 6.60723 14.0133 6.30448 13.178C6.00173 12.3427 5.92252 11.4235 6.07686 10.5367C6.2312 9.64996 6.61216 8.83541 7.17157 8.19608C7.73098 7.55676 8.44372 7.12137 9.21964 6.94498C9.99556 6.76859 10.7998 6.85912 11.5307 7.20512C12.2616 7.55112 12.8864 8.13706 13.3259 8.88882C13.7654 9.64059 14 10.5244 14 11.4286C13.9988 12.6406 13.577 13.8026 12.8271 14.6596C12.0773 15.5166 11.0605 15.9987 10 16Z" fill="black" fill-opacity="0.5"/>
</svg>
