<svg width="49" height="33" viewBox="0 0 49 33" fill="none" xmlns="http://www.w3.org/2000/svg">
<line x1="48.5" y1="6" x2="48.5" y2="33" stroke="white"/>
<path d="M16.5 2.0625C10.8069 2.0625 6.1875 6.22037 6.1875 11.3438C6.1875 19.5938 16.5 30.9375 16.5 30.9375C16.5 30.9375 26.8125 19.5938 26.8125 11.3438C26.8125 6.22037 22.1931 2.0625 16.5 2.0625ZM16.5 16.5C15.6842 16.5 14.8866 16.2581 14.2083 15.8048C13.5299 15.3516 13.0012 14.7073 12.689 13.9536C12.3768 13.1998 12.2951 12.3704 12.4543 11.5703C12.6134 10.7701 13.0063 10.0351 13.5832 9.45818C14.1601 8.88129 14.8951 8.48842 15.6953 8.32926C16.4954 8.1701 17.3248 8.25179 18.0786 8.564C18.8323 8.87621 19.4766 9.40492 19.9298 10.0833C20.3831 10.7616 20.625 11.5592 20.625 12.375C20.6238 13.4687 20.1888 14.5172 19.4155 15.2905C18.6422 16.0638 17.5937 16.4988 16.5 16.5Z" fill="white"/>
</svg>
