<svg width="54" height="52" viewBox="0 0 54 52" fill="none" xmlns="http://www.w3.org/2000/svg">
<path d="M52.5 26C52.5 39.4781 41.1371 50.5 27 50.5C12.8629 50.5 1.5 39.4781 1.5 26C1.5 12.5219 12.8629 1.5 27 1.5C41.1371 1.5 52.5 12.5219 52.5 26Z" stroke="#921F1F" stroke-width="3"/>
<path fill-rule="evenodd" clip-rule="evenodd" d="M33.107 27.681C34.8788 26.4465 36.1971 24.7067 36.8731 22.7109C37.5491 20.7151 37.5481 18.5656 36.8702 16.5704C36.1923 14.5752 34.8723 12.8366 33.0994 11.6036C31.3264 10.3707 29.1914 9.70667 27.0001 9.70667C24.8089 9.70667 22.6739 10.3707 20.9009 11.6036C19.128 12.8366 17.808 14.5752 17.1301 16.5704C16.4522 18.5656 16.4512 20.7151 17.1272 22.7109C17.8032 24.7067 19.1215 26.4465 20.8933 27.681C18.8824 28.3739 17.1437 29.6442 15.9147 31.3183C14.6857 32.9925 14.0262 34.989 14.0261 37.0354V38.2777C14.0261 38.6072 14.1628 38.9232 14.4061 39.1561C14.6494 39.3891 14.9794 39.52 15.3235 39.52C15.6676 39.52 15.9976 39.3891 16.2409 39.1561C16.4842 38.9232 16.6209 38.6072 16.6209 38.2777V37.0354C16.6209 35.0586 17.4411 33.1627 18.9009 31.7648C20.3608 30.367 22.3408 29.5817 24.4053 29.5817H29.595C31.6595 29.5817 33.6395 30.367 35.0994 31.7648C36.5592 33.1627 37.3794 35.0586 37.3794 37.0354V38.2777C37.3794 38.6072 37.5161 38.9232 37.7594 39.1561C38.0027 39.3891 38.3327 39.52 38.6768 39.52C39.0209 39.52 39.3509 39.3891 39.5942 39.1561C39.8375 38.9232 39.9742 38.6072 39.9742 38.2777V37.0354C39.9741 34.989 39.3146 32.9925 38.0856 31.3183C36.8565 29.6442 35.1179 28.3739 33.107 27.681ZM19.2157 19.6434C19.2157 17.6665 20.0359 15.7706 21.4957 14.3728C22.9556 12.9749 24.9356 12.1896 27.0001 12.1896C29.0647 12.1896 31.0447 12.9749 32.5046 14.3728C33.9644 15.7706 34.7846 17.6665 34.7846 19.6434C34.7846 21.6202 33.9644 23.5161 32.5046 24.914C31.0447 26.3118 29.0647 27.0971 27.0001 27.0971C24.9356 27.0971 22.9556 26.3118 21.4957 24.914C20.0359 23.5161 19.2157 21.6202 19.2157 19.6434Z" fill="#921F1F"/>
</svg>
