<svg width="100" height="98" viewBox="0 0 100 98" fill="none" xmlns="http://www.w3.org/2000/svg">
<ellipse cx="50" cy="49" rx="50" ry="49" fill="#FFF8F8"/>
<path d="M64.8325 20.6665C64.8325 20.2244 64.6657 19.8005 64.3687 19.488C64.0718 19.1754 63.6691 18.9998 63.2491 18.9998H55.3325C51.346 18.7908 47.443 20.2511 44.4763 23.0617C41.5095 25.8724 39.7201 29.8048 39.4991 33.9998V42.9998H31.5825C31.1626 42.9998 30.7598 43.1754 30.4629 43.4879C30.166 43.8005 29.9991 44.2244 29.9991 44.6664V53.3331C29.9991 53.7751 30.166 54.199 30.4629 54.5116C30.7598 54.8241 31.1626 54.9997 31.5825 54.9997H39.4991V77.333C39.4991 77.7751 39.666 78.199 39.9629 78.5115C40.2598 78.8241 40.6626 78.9997 41.0825 78.9997H50.5825C51.0024 78.9997 51.4051 78.8241 51.7021 78.5115C51.999 78.199 52.1658 77.7751 52.1658 77.333V54.9997H60.4625C60.8146 55.0051 61.1583 54.8867 61.4393 54.6633C61.7204 54.4399 61.9226 54.1243 62.0142 53.7664L64.2941 45.0998C64.3571 44.8535 64.3656 44.5953 64.3189 44.3451C64.2722 44.0948 64.1715 43.8592 64.0247 43.6563C63.8779 43.4535 63.6888 43.2888 63.472 43.175C63.2552 43.0611 63.0164 43.0012 62.7742 42.9998H52.1658V33.9998C52.2446 33.1747 52.6127 32.4102 53.1982 31.8554C53.7838 31.3007 54.5447 30.9956 55.3325 30.9998H63.2491C63.6691 30.9998 64.0718 30.8242 64.3687 30.5116C64.6657 30.1991 64.8325 29.7752 64.8325 29.3331V20.6665Z" fill="#D40303"/>
</svg>
