<svg width="45" height="48" viewBox="0 0 45 48" fill="none" xmlns="http://www.w3.org/2000/svg">
<g filter="url(#filter0_d_0_145)">
<path d="M30.5701 1H14.43C9.22198 1 5 5.58387 5 11.2383V28.7617C5 34.4161 9.22198 39 14.43 39H30.57C35.778 39 40 34.4161 40 28.7617V11.2383C40.0001 5.58387 35.7781 1 30.5701 1Z" stroke="white" stroke-width="2" stroke-miterlimit="10"/>
<path d="M22.5001 29.1723C27.1659 29.1723 30.9484 25.0656 30.9484 19.9998C30.9484 14.934 27.1659 10.8274 22.5001 10.8274C17.8342 10.8274 14.0518 14.934 14.0518 19.9998C14.0518 25.0656 17.8342 29.1723 22.5001 29.1723Z" stroke="white" stroke-width="2" stroke-miterlimit="10"/>
<path d="M32.7591 10.8278C33.7589 10.8278 34.5695 9.9478 34.5695 8.86226C34.5695 7.77673 33.7589 6.89673 32.7591 6.89673C31.7593 6.89673 30.9487 7.77673 30.9487 8.86226C30.9487 9.9478 31.7593 10.8278 32.7591 10.8278Z" fill="white"/>
</g>
<defs>
<filter id="filter0_d_0_145" x="0" y="0" width="45" height="48" filterUnits="userSpaceOnUse" color-interpolation-filters="sRGB">
<feFlood flood-opacity="0" result="BackgroundImageFix"/>
<feColorMatrix in="SourceAlpha" type="matrix" values="0 0 0 0 0 0 0 0 0 0 0 0 0 0 0 0 0 0 127 0" result="hardAlpha"/>
<feOffset dy="4"/>
<feGaussianBlur stdDeviation="2"/>
<feComposite in2="hardAlpha" operator="out"/>
<feColorMatrix type="matrix" values="0 0 0 0 0 0 0 0 0 0 0 0 0 0 0 0 0 0 0.25 0"/>
<feBlend mode="normal" in2="BackgroundImageFix" result="effect1_dropShadow_0_145"/>
<feBlend mode="normal" in="SourceGraphic" in2="effect1_dropShadow_0_145" result="shape"/>
</filter>
</defs>
</svg>
