<svg width="45" height="41" viewBox="0 0 45 41" fill="none" xmlns="http://www.w3.org/2000/svg">
<ellipse cx="22.5" cy="20.5" rx="22.5" ry="20.5" fill="url(#paint0_linear_138_6)"/>
<path d="M17.522 25.892C19.186 24.5053 20.512 23.3527 21.5 22.434C22.488 21.498 23.3113 20.5273 23.97 19.522C24.6287 18.5167 24.958 17.5287 24.958 16.558C24.958 15.674 24.75 14.9807 24.334 14.478C23.918 13.9753 23.2767 13.724 22.41 13.724C21.5433 13.724 20.876 14.0187 20.408 14.608C19.94 15.18 19.6973 15.9687 19.68 16.974H16.144C16.2133 14.894 16.8287 13.3167 17.99 12.242C19.1687 11.1673 20.6593 10.63 22.462 10.63C24.438 10.63 25.9547 11.1587 27.012 12.216C28.0693 13.256 28.598 14.634 28.598 16.35C28.598 17.702 28.234 18.9933 27.506 20.224C26.778 21.4547 25.946 22.5293 25.01 23.448C24.074 24.3493 22.852 25.4413 21.344 26.724H29.014V29.74H16.17V27.036L17.522 25.892Z" fill="white"/>
<defs>
<linearGradient id="paint0_linear_138_6" x1="22.5" y1="0" x2="22.5" y2="41" gradientUnits="userSpaceOnUse">
<stop stop-color="#FF0000"/>
<stop offset="1" stop-color="#A34646"/>
</linearGradient>
</defs>
</svg>
