<svg width="45" height="41" viewBox="0 0 45 41" fill="none" xmlns="http://www.w3.org/2000/svg">
<ellipse cx="22.5" cy="20.5" rx="22.5" ry="20.5" fill="url(#paint0_linear_140_9)"/>
<path d="M16.43 15.038C16.5167 13.3047 17.1233 11.97 18.25 11.034C19.394 10.0807 20.8933 9.604 22.748 9.604C24.0133 9.604 25.0967 9.82933 25.998 10.28C26.8993 10.7133 27.5753 11.3113 28.026 12.074C28.494 12.8193 28.728 13.6687 28.728 14.622C28.728 15.714 28.442 16.6413 27.87 17.404C27.3153 18.1493 26.648 18.652 25.868 18.912V19.016C26.8733 19.328 27.6533 19.8827 28.208 20.68C28.78 21.4773 29.066 22.5 29.066 23.748C29.066 24.788 28.8233 25.7153 28.338 26.53C27.87 27.3447 27.168 27.986 26.232 28.454C25.3133 28.9047 24.204 29.13 22.904 29.13C20.9453 29.13 19.3507 28.636 18.12 27.648C16.8893 26.66 16.2393 25.204 16.17 23.28H19.706C19.7407 24.1293 20.0267 24.814 20.564 25.334C21.1187 25.8367 21.8727 26.088 22.826 26.088C23.71 26.088 24.386 25.8453 24.854 25.36C25.3393 24.8573 25.582 24.216 25.582 23.436C25.582 22.396 25.2527 21.6507 24.594 21.2C23.9353 20.7493 22.9127 20.524 21.526 20.524H20.772V17.534H21.526C23.9873 17.534 25.218 16.7107 25.218 15.064C25.218 14.3187 24.9927 13.738 24.542 13.322C24.1087 12.906 23.476 12.698 22.644 12.698C21.8293 12.698 21.1967 12.9233 20.746 13.374C20.3127 13.8073 20.0613 14.362 19.992 15.038H16.43Z" fill="white"/>
<defs>
<linearGradient id="paint0_linear_140_9" x1="22.5" y1="0" x2="22.5" y2="41" gradientUnits="userSpaceOnUse">
<stop stop-color="#FF0000"/>
<stop offset="1" stop-color="#A34646"/>
</linearGradient>
</defs>
</svg>
