<svg width="52" height="44" viewBox="0 0 52 44" fill="none" xmlns="http://www.w3.org/2000/svg">
<g filter="url(#filter0_d_0_149)">
<path d="M17.5074 35.3374C20.7112 35.4248 23.904 34.9876 26.8971 34.0516C29.8902 33.1156 32.6229 31.6999 34.9336 29.888C37.2444 28.0761 39.0863 25.9049 40.3505 23.5027C41.6147 21.1004 42.2756 18.5159 42.294 15.9018C43.7623 14.4201 44.8525 12.7141 45.5007 10.8839C45.5491 10.7393 45.5452 10.5864 45.4895 10.4436C45.4337 10.3007 45.3286 10.1741 45.1866 10.0789C45.0447 9.98364 44.872 9.92392 44.6894 9.90687C44.5068 9.88983 44.322 9.9162 44.1574 9.9828C43.3892 10.2843 42.5245 10.3817 41.6849 10.2613C40.8453 10.1408 40.0732 9.80859 39.4774 9.31139C38.7168 8.63217 37.7967 8.08435 36.7717 7.70041C35.7467 7.31646 34.6377 7.1042 33.5103 7.07619C32.3828 7.04818 31.26 7.20499 30.2082 7.53734C29.1565 7.8697 28.1973 8.37082 27.3874 9.01102C26.2785 9.88679 25.4662 10.9816 25.0296 12.189C24.593 13.3965 24.5469 14.6755 24.8957 15.9018C17.6374 16.2552 12.654 13.4459 8.66737 9.59409C8.5476 9.48349 8.39093 9.40372 8.21649 9.36452C8.04205 9.32532 7.85739 9.3284 7.68505 9.37337C7.51272 9.41834 7.36018 9.50326 7.24605 9.61776C7.13192 9.73226 7.06114 9.87138 7.04237 10.0181C6.28288 13.4537 6.83075 16.9965 8.61237 20.1707C10.394 23.3449 13.3241 25.9985 17.009 27.7752C14.5382 30.0859 11.0685 31.5292 7.32403 31.8036C7.12343 31.8308 6.93824 31.9084 6.79439 32.0256C6.65055 32.1428 6.55524 32.2937 6.52181 32.4573C6.48838 32.6209 6.5185 32.7889 6.60796 32.9378C6.69741 33.0867 6.84173 33.2091 7.0207 33.2878C10.2783 34.6154 13.8657 35.3165 17.5074 35.3374Z" fill="white"/>
</g>
<defs>
<filter id="filter0_d_0_149" x="2.50854" y="7.073" width="47.0258" height="36.2754" filterUnits="userSpaceOnUse" color-interpolation-filters="sRGB">
<feFlood flood-opacity="0" result="BackgroundImageFix"/>
<feColorMatrix in="SourceAlpha" type="matrix" values="0 0 0 0 0 0 0 0 0 0 0 0 0 0 0 0 0 0 127 0" result="hardAlpha"/>
<feOffset dy="4"/>
<feGaussianBlur stdDeviation="2"/>
<feComposite in2="hardAlpha" operator="out"/>
<feColorMatrix type="matrix" values="0 0 0 0 0 0 0 0 0 0 0 0 0 0 0 0 0 0 0.25 0"/>
<feBlend mode="normal" in2="BackgroundImageFix" result="effect1_dropShadow_0_149"/>
<feBlend mode="normal" in="SourceGraphic" in2="effect1_dropShadow_0_149" result="shape"/>
</filter>
</defs>
</svg>
