<svg width="28" height="30" viewBox="0 0 28 30" fill="none" xmlns="http://www.w3.org/2000/svg">
<path d="M9.33337 16.1832V5.6019C9.33337 5.10667 9.51775 4.63172 9.84594 4.28153C10.1741 3.93135 10.6192 3.73462 11.0834 3.73462C11.5475 3.73462 11.9926 3.93135 12.3208 4.28153C12.649 4.63172 12.8334 5.10667 12.8334 5.6019V14.9383" stroke="white" stroke-width="1.5" stroke-linecap="round" stroke-linejoin="round"/>
<path d="M12.8334 14.3159V11.8261C12.8334 11.3309 13.0177 10.856 13.3459 10.5058C13.6741 10.1556 14.1192 9.95886 14.5834 9.95886C15.0475 9.95886 15.4926 10.1556 15.8208 10.5058C16.149 10.856 16.3334 11.3309 16.3334 11.8261V14.9383" stroke="white" stroke-width="1.5" stroke-linecap="round" stroke-linejoin="round"/>
<path d="M16.3333 13.071C16.3333 12.5758 16.5176 12.1008 16.8458 11.7506C17.174 11.4005 17.6191 11.2037 18.0833 11.2037C18.5474 11.2037 18.9925 11.4005 19.3207 11.7506C19.6489 12.1008 19.8333 12.5758 19.8333 13.071V14.9383" stroke="white" stroke-width="1.5" stroke-linecap="round" stroke-linejoin="round"/>
<path d="M19.8333 14.3159C19.8333 13.8207 20.0177 13.3457 20.3459 12.9955C20.6741 12.6453 21.1192 12.4486 21.5833 12.4486C22.0474 12.4486 22.4925 12.6453 22.8207 12.9955C23.1489 13.3457 23.3333 13.8207 23.3333 14.3159V19.9177C23.3333 21.8987 22.5958 23.7985 21.2831 25.1992C19.9703 26.5999 18.1898 27.3869 16.3333 27.3869H14H14.2426C13.0834 27.3871 11.9422 27.0801 10.9216 26.4934C9.90098 25.9068 9.0329 25.0588 8.3953 24.0258L8.16664 23.6523C7.80264 23.056 6.52514 20.6796 4.33297 16.5218C4.10949 16.0979 4.0498 15.5978 4.16658 15.1277C4.28336 14.6577 4.56741 14.2547 4.9583 14.0047C5.37466 13.7381 5.86255 13.6276 6.34449 13.6908C6.82642 13.7539 7.27477 13.9871 7.6183 14.3532L9.3333 16.1832" stroke="white" stroke-width="1.5" stroke-linecap="round" stroke-linejoin="round"/>
<path d="M5.83329 3.7346L4.66663 2.48975" stroke="white" stroke-width="1.5" stroke-linecap="round" stroke-linejoin="round"/>
<path d="M4.66667 8.71399H3.5" stroke="white" stroke-width="1.5" stroke-linecap="round" stroke-linejoin="round"/>
<path d="M16.3333 3.7346L17.4999 2.48975" stroke="white" stroke-width="1.5" stroke-linecap="round" stroke-linejoin="round"/>
<path d="M17.5 7.46912H18.6667" stroke="white" stroke-width="1.5" stroke-linecap="round" stroke-linejoin="round"/>
</svg>
